<svg id="Layer_1" data-name="Layer 1" xmlns="http://www.w3.org/2000/svg" viewBox="0 0 800 800"><defs><style>.cls-1{fill:#b85eac;}</style></defs><title>8-bitify-logo</title><path class="cls-1" d="M225.51,748.41q33,24.95,77.68,38.26T400,800a295.3,295.3,0,0,0,92.75-14.49Q536.81,771,571,744.93a192.29,192.29,0,0,0,53.92-63.19q19.7-37.1,19.71-81.16,0-38.26-13.33-70.14a223.72,223.72,0,0,0-35.95-58.56Q572.75,445.23,540.87,422A793,793,0,0,0,473,378a624.17,624.17,0,0,0,56.24-40.58A366.05,366.05,0,0,0,577.39,291,217.63,217.63,0,0,0,611,238.26q12.75-28.39,12.76-62,0-41.73-18-74.78A171.06,171.06,0,0,0,557.68,45.8q-30.16-22.62-71.3-34.21A317.91,317.91,0,0,0,400,0q-46.38,0-87,12.17t-71.3,35.95a173.43,173.43,0,0,0-48.12,56.81q-17.38,33-17.39,74.78,0,33.64,11.6,62.61a206.72,206.72,0,0,0,32.46,54.49,287.91,287.91,0,0,0,48.12,46.38A592.48,592.48,0,0,0,327,382.61a652.58,652.58,0,0,0-60.87,40A359.14,359.14,0,0,0,211,472.46a252.12,252.12,0,0,0-40,60.29,164.39,164.39,0,0,0-15.66,71.31q0,46.38,18.55,82.9A175.82,175.82,0,0,0,225.51,748.41ZM307.25,262q-31.31-32.44-31.31-83.48,0-41.74,32.47-70.14T400,80q59.13,0,91.59,27.83t32.47,70.72q0,46.38-35.36,81.16T400,330.44Q338.53,294.5,307.25,262Zm-40,289.85A162.14,162.14,0,0,1,298,508.41a332.62,332.62,0,0,1,45.8-38.85Q369.86,451,400,430.14q34.78,20.88,61.45,39.42t44.64,38.27a154.51,154.51,0,0,1,27.82,42.31q9.84,22.62,9.86,51.6,0,52.17-40,85.22T400,720q-66.09,0-104.93-30.14t-38.84-84.64Q256.23,575.09,267.25,551.88Z"/></svg>