<svg id="Layer_1" data-name="Layer 1" xmlns="http://www.w3.org/2000/svg" viewBox="0 0 800 497.75"><defs><style>.cls-1{fill:#c585c0;}.cls-2{fill:#86479f;}.cls-3{fill:#dbb9da;}.cls-4{fill:#f1e0ef;}.cls-5{fill:#ecd8eb;}.cls-6{fill:#733f8f;}.cls-7{fill:#360076;}</style></defs><title>8bitify-icons</title><rect class="cls-1" y="38.82" width="800" height="458.93"/><rect class="cls-2" y="99.36" width="800" height="366.87"/><rect class="cls-3" x="131.28" y="-42.82" width="38.82" height="124.45" transform="translate(170.1 -131.28) rotate(90)"/><rect class="cls-4" x="658.21" y="48.01" width="38.82" height="63.9" transform="translate(757.58 -597.67) rotate(90)"/><rect class="cls-5" x="722.11" y="48.01" width="38.82" height="63.9" transform="translate(821.48 -661.57) rotate(90)"/><rect class="cls-6" x="194.67" y="42.82" width="28.71" height="56.13" transform="translate(279.91 -138.14) rotate(90)"/><rect class="cls-3" x="402.78" y="-2.56" width="71.89" height="246.22" transform="translate(559.28 -318.17) rotate(90)"/><rect class="cls-3" x="402.78" y="315.55" width="71.89" height="246.22" transform="translate(877.39 -0.06) rotate(90)"/><rect class="cls-3" x="243.72" y="156.5" width="71.89" height="246.22" transform="translate(559.34 559.22) rotate(180)"/><rect class="cls-3" x="561.84" y="156.5" width="71.89" height="246.22" transform="translate(1195.56 559.22) rotate(180)"/><rect class="cls-7" x="315.61" y="156.5" width="246.22" height="246.22"/><rect class="cls-3" x="279.67" y="120.55" width="72.59" height="72.59"/><rect class="cls-3" x="525.54" y="120.55" width="72.59" height="72.59"/><rect class="cls-3" x="279.67" y="366.42" width="72.59" height="72.59"/><rect class="cls-3" x="525.54" y="366.42" width="72.59" height="72.59"/></svg>