<svg id="Layer_1" data-name="Layer 1" xmlns="http://www.w3.org/2000/svg" viewBox="0 0 800 497.75"><defs><style>.cls-1{fill:#a681b5;}.cls-2{fill:#fcf4f9;}.cls-3{fill:#743295;}.cls-4{fill:#e4c8e2;}</style></defs><title>8bitify-icons</title><rect class="cls-1" x="286.41" y="373.12" width="68.42" height="91.89"/><rect class="cls-1" x="158.85" y="452.62" width="323.53" height="33.88"/><polygon class="cls-1" points="630.81 19.96 630.81 9.54 10.43 9.54 10.43 19.96 0 19.96 0 382.25 10.43 382.25 10.43 392.67 630.81 392.67 630.81 382.25 641.24 382.25 641.24 19.96 630.81 19.96"/><rect class="cls-2" x="36.54" y="44.07" width="568.17" height="272.26"/><rect class="cls-3" x="585.38" y="349.02" width="19.33" height="19.33"/><rect class="cls-1" x="682.96" y="310.22" width="117.04" height="164.13"/><rect class="cls-1" x="697.05" y="310.22" width="88.85" height="177.98"/><rect class="cls-3" x="734.29" y="337.73" width="14.38" height="51.64"/><polygon class="cls-4" points="697.05 297.13 697.05 310.22 682.96 310.22 682.96 363.55 697.05 363.55 720.2 363.55 734.29 363.55 734.29 297.13 697.05 297.13"/><polygon class="cls-4" points="785.91 297.13 785.91 310.22 800 310.22 800 363.55 785.91 363.55 762.76 363.55 748.67 363.55 748.67 297.13 785.91 297.13"/></svg>