<svg id="Layer_1" data-name="Layer 1" xmlns="http://www.w3.org/2000/svg" viewBox="0 0 800 497.75"><defs><style>.cls-1{fill:#86469f;}.cls-2{fill:#cca3cf;}.cls-3{fill:#9056a7;}.cls-4{fill:#ddbbdb;}.cls-5{fill:#733f8e;}.cls-6{fill:#aa73b6;}</style></defs><title>8bitify-icons</title><rect class="cls-1" x="27.07" y="60.88" width="31.33" height="75.55" transform="translate(-64.68 103.34) rotate(-69.08)"/><rect class="cls-2" x="53.98" y="95.41" width="117.51" height="60" transform="translate(-44.67 185.93) rotate(-69.08)"/><rect class="cls-2" x="41.89" y="82.14" width="72.25" height="60" transform="translate(-54.59 144.97) rotate(-69.08)"/><rect class="cls-1" x="358.46" y="-69.35" width="117.51" height="622.33" transform="translate(42.36 545.18) rotate(-69.08)"/><rect class="cls-3" x="397.74" y="-45.16" width="20.46" height="622.33" transform="translate(13.82 552.09) rotate(-69.08)"/><rect class="cls-3" x="416.24" y="-93.53" width="20.46" height="622.33" transform="translate(70.9 538.27) rotate(-69.08)"/><rect class="cls-2" x="672.27" y="311.03" width="117.51" height="101.52" transform="translate(132.05 915.42) rotate(-69.08)"/><rect class="cls-4" x="630.16" y="325.39" width="117.51" height="40.59" transform="translate(120.01 865.74) rotate(-69.08)"/><rect class="cls-5" x="250.87" y="-10.36" width="110.42" height="584.77" transform="translate(437.71 -112.81) rotate(65.78)"/><rect class="cls-5" x="242.59" y="-0.8" width="84.5" height="584.77" transform="translate(433.9 -87.81) rotate(65.78)"/><rect class="cls-6" x="576.11" y="57.2" width="110.42" height="157.04" transform="translate(496.1 -495.71) rotate(65.78)"/><rect class="cls-2" x="650.92" y="40.08" width="69.86" height="126.17" transform="translate(498.56 -564.64) rotate(65.78)"/><rect class="cls-2" x="724.63" y="67.93" width="55.21" height="55.21" transform="translate(530.76 -629.67) rotate(65.78)"/><rect class="cls-2" x="763.86" y="107.69" width="35.21" height="20.12" transform="translate(568.26 -643.23) rotate(65.78)"/><rect class="cls-6" x="567.57" y="80.55" width="142.46" height="103.6" transform="translate(497.44 -504.52) rotate(65.78)"/><rect class="cls-2" x="500.13" y="150.83" width="110.42" height="38.14" transform="translate(482.46 -406.25) rotate(65.78)"/><rect class="cls-2" x="629.89" y="91.97" width="110.42" height="39.11" transform="translate(505.75 -559.01) rotate(65.78)"/><rect class="cls-2" x="597" y="100.62" width="141.09" height="39.11" transform="translate(503.29 -537.91) rotate(65.78)"/><rect class="cls-2" x="657.2" y="148.51" width="21.41" height="39.11" transform="translate(547.17 -509.99) rotate(65.78)"/><rect class="cls-2" x="615.66" y="72.46" width="21.41" height="61.79" transform="translate(463.66 -510.27) rotate(65.78)"/></svg>